<?xml version="1.0" standalone="no"?>
<!DOCTYPE svg PUBLIC "-//W3C//DTD SVG 20010904//EN"
 "http://www.w3.org/TR/2001/REC-SVG-20010904/DTD/svg10.dtd">
<svg version="1.0" xmlns="http://www.w3.org/2000/svg"
 width="1280.000000pt" height="1280.000000pt" viewBox="0 0 1280.000000 1280.000000"
 preserveAspectRatio="xMidYMid meet">
<metadata>
Created by potrace 1.15, written by Peter Selinger 2001-2017
</metadata>
<g transform="translate(0.000000,1280.000000) scale(0.100000,-0.100000)"
fill="#000000" stroke="none">
<path d="M6110 12793 c-956 -50 -1822 -283 -2655 -712 -2155 -1111 -3507
-3383 -3452 -5801 10 -419 40 -702 118 -1110 155 -806 484 -1608 944 -2305
610 -923 1476 -1689 2474 -2190 1358 -680 2927 -853 4406 -484 567 141 1114
359 1615 644 1103 626 1997 1570 2568 2711 678 1355 849 2923 481 4399 -167
671 -445 1320 -811 1895 -605 950 -1464 1732 -2473 2251 -803 413 -1651 645
-2560 699 -153 9 -514 11 -655 3z"/>
</g>
</svg>
